# xmcd
#
# Track frame offsets:
#	150
#	11849
#	24816
#	42328
#	53178
#	66982
#	77843
#	89068
#	101135
#	111297
#	125144
#	136469
#	149676
#	164324
#	177187
#	190415
#	207215
#	223095
#	240193
#	254699
#
# Disc length: 3595 seconds
#
# Revision: 0
# Processed by: cddbd v1.5.2PL0 Copyright (c) Steve Scherf et al.
# Submitted via: EasyCDDAExtractor 10.0.1.1
#
DISCID=320e0914
DTITLE=Various Artist - Yesterday once more - Nice'N'Easy
DYEAR=2008
DGENRE=Oldies
TTITLE0=NAt King Cole - L-O-V-E
TTITLE1=Dionne Warwick - Walk on by
TTITLE2=Al Martino - The shadow of your smile
TTITLE3=Frank Sinatra - Nice'n'easy
TTITLE4=Louis Armstrong - C'est si bon
TTITLE5=Andy Willians - The more I see you
TTITLE6=Petula Clark - You're the one
TTITLE7=Patti Page - The Doggie in the window
TTITLE8=Dean Martin - Just in time
TTITLE9=Ben E. King - Amor
TTITLE10=Bobby Darin - Dream lover
TTITLE11=Doris Day - Cheek to cheek
TTITLE12=Engelbert Humperdinck - Spainish eyes
TTITLE13=Bobby Vinton - Blue velvet
TTITLE14=Tony Bennett - I left my heeart in San Francisco
TTITLE15=Lou Rawls - Lady Love
TTITLE16=5th Dimension - One less bell to answer
TTITLE17=The Temptations - Just my imagination
TTITLE18=Eddie Holman - Hey there lonely girl
TTITLE19=Al Green - Let's Stay Toghther
EXTD=
EXTT0=
EXTT1=
EXTT2=
EXTT3=
EXTT4=
EXTT5=
EXTT6=
EXTT7=
EXTT8=
EXTT9=
EXTT10=
EXTT11=
EXTT12=
EXTT13=
EXTT14=
EXTT15=
EXTT16=
EXTT17=
EXTT18=
EXTT19=
PLAYORDER=
